Coordinates
datacolumns 6
datarows 143
range 0 1.42
inDegrees=yes
Units are S.I. units (second, meters, Newtons, ...)
If the header above contains a line with 'inDegrees', this indicates whether rotational values are in degrees (yes) or radians (no).
endheader
time	foot_tx	hip_flexion_r	knee_angle_r	ankle_angle_r	lumbar
0	0.25334513	67.99652826	-71.94410337	0.15805894	-8.28476678
0.01	0.25332739	67.98125782	-71.9309677	0.14966267	-8.4153567
0.02	0.25332494	67.99831541	-71.91492117	0.13631136	-8.51791659
0.03	0.25332444	68.0181221	-71.89915311	0.12296571	-8.62985434
0.04	0.2533291	68.04072204	-71.88320559	0.10918278	-8.75250096
0.05	0.25333484	68.06598856	-71.86814517	0.09588795	-8.88706459
0.06	0.25334215	68.09480242	-71.8534476	0.08274753	-9.03321503
0.07	0.25335034	68.12823721	-71.83894019	0.06974226	-9.18981065
0.08	0.25335804	68.16754042	-71.82455227	0.05694672	-9.35526898
0.09	0.25336193	68.213078	-71.80996496	0.04449477	-9.52933088
0.1	0.25336547	68.26776161	-71.79561767	0.03224957	-9.70811931
0.11	0.25336362	68.33139689	-71.78126831	0.02052188	-9.89250039
0.12	0.25335671	68.40185021	-71.76625993	0.00916878	-10.08539982
0.13	0.25332799	68.48355115	-71.75383995	0.0008747	-10.28236351
0.14	0.25329222	68.57132777	-71.74142828	-0.00635023	-10.48984855
0.15	0.25324388	68.6647918	-71.7298842	-0.01149389	-10.70937107
0.16	0.25318442	68.76205535	-71.71886586	-0.01456302	-10.94434713
0.17	0.25311641	68.86214899	-71.70769698	-0.01583261	-11.19722653
0.18	0.25305123	68.9626311	-71.69447207	-0.01676451	-11.47229712
0.19	0.25299211	69.06184799	-71.67783021	-0.01805771	-11.77335871
0.2	0.25294226	69.15915903	-71.65706474	-0.02004791	-12.10279141
0.21	0.25289562	69.25496394	-71.63209134	-0.02238446	-12.46187569
0.22	0.25285043	69.35161815	-71.60301863	-0.02500935	-12.84920917
0.23	0.25280543	69.45527715	-71.57057462	-0.02799459	-13.25857032
0.24	0.25276345	69.57632953	-71.53587982	-0.03191448	-13.67834615
0.25	0.25272262	69.72685277	-71.50162213	-0.03630167	-14.09446173
0.26	0.25268585	69.91154118	-71.46892603	-0.04101342	-14.5012862
0.27	0.25263888	70.13842119	-71.44256651	-0.04254492	-14.88943168
0.28	0.25259358	70.39539394	-71.41808193	-0.04272729	-15.27376759
0.29	0.25255555	70.68316542	-71.39579493	-0.04138673	-15.65363126
0.3	0.25251859	70.99693615	-71.3745859	-0.03807529	-16.03629781
0.31	0.25248724	71.33584104	-71.35294805	-0.03374858	-16.423743
0.32	0.2524471	71.70374018	-71.33677269	-0.02394779	-16.81090694
0.33	0.25242473	72.12251158	-71.31839446	-0.01645499	-17.17203648
0.34	0.25239755	72.55688167	-71.29993517	-0.00462381	-17.55016245
0.35	0.25236414	73.01244836	-71.28082557	0.01160884	-17.93837616
0.36	0.25233101	73.49326697	-71.25747467	0.03012586	-18.33288776
0.37	0.2523095	74.00629621	-71.22522288	0.04732102	-18.72775901
0.38	0.25226445	74.62749744	-71.19704185	0.06612767	-19.03294374
0.39	0.25222682	75.26489455	-71.16153382	0.08588588	-19.36374744
0.4	0.25218248	75.95249164	-71.12534461	0.10812294	-19.68071902
0.41	0.25213595	76.69663823	-71.08703048	0.1313936	-19.97661874
0.42	0.25208196	77.49664526	-71.04828171	0.15793135	-20.24984276
0.43	0.25203252	78.35676931	-71.00458038	0.18508141	-20.49155826
0.44	0.25196324	79.2740856	-70.9621842	0.21896468	-20.70057271
0.45	0.25187997	80.24881069	-70.91659651	0.25754724	-20.87363427
0.46	0.25179463	81.29155321	-70.86742308	0.29995938	-20.99029925
0.47	0.2517023	82.40297852	-70.8154596	0.34927622	-21.04115286
0.48	0.25160634	83.59152812	-70.76209683	0.40886437	-21.00315953
0.49	0.25149381	84.84550093	-70.71212035	0.48722204	-20.8774978
0.5	0.25138164	86.16398371	-70.66407139	0.58642602	-20.65060309
0.51	0.25128792	87.53498296	-70.61564563	0.70794848	-20.32374631
0.52	0.25119634	88.94197716	-70.57736482	0.86243969	-19.90478801
0.53	0.2511279	90.36448087	-70.54753849	1.05105851	-19.40988388
0.54	0.25108549	91.78123252	-70.53188076	1.27922448	-18.85801594
0.55	0.25107608	93.16731037	-70.53133781	1.54917051	-18.27494178
0.56	0.25110266	94.50542444	-70.54994616	1.86345347	-17.67836439
0.57	0.25117075	95.77184296	-70.5830036	2.21965676	-17.09475745
0.58	0.25127889	96.94934963	-70.62723453	2.61511025	-16.54242213
0.59	0.25142177	98.01216088	-70.67963362	3.04741147	-16.05028501
0.6	0.25159206	98.93605068	-70.73747148	3.51346159	-15.64508738
0.61	0.25178073	99.70201701	-70.79995747	4.00969311	-15.34814646
0.62	0.25198055	100.3028952	-70.86535436	4.53067159	-15.16467462
0.63	0.25218736	100.7323301	-70.93740022	5.0722261	-15.10307605
0.64	0.25239661	101.0041781	-71.00854771	5.62495196	-15.13834093
0.65	0.25261258	101.1594302	-71.06800456	6.1760036	-15.21126641
0.66	0.2528234	101.1459997	-71.11187488	6.72446873	-15.38730166
0.67	0.25303306	101.0621232	-71.12043374	7.25185092	-15.52955919
0.68	0.25323975	100.8958666	-71.08541636	7.7538408	-15.65081884
0.69	0.25344389	100.6588564	-70.99597713	8.22480579	-15.72858432
0.7	0.25364369	100.3515203	-70.84310225	8.6610643	-15.76077326
0.71	0.25384605	99.97658316	-70.61567218	9.05790518	-15.7392674
0.72	0.25404367	99.53021462	-70.30771064	9.41431413	-15.66730453
0.73	0.25422934	99.00601527	-69.911875	9.7293069	-15.55147202
0.74	0.25439726	98.40006044	-69.42251367	10.001578	-15.39654099
0.75	0.25454499	97.70403909	-68.83651986	10.23105877	-15.21334554
0.76	0.25467666	96.91203598	-68.14950997	10.41565727	-15.01082329
0.77	0.25479018	96.01797801	-67.36090377	10.55564703	-14.79962395
0.78	0.25488861	95.01299565	-66.47031032	10.65105558	-14.59264008
0.79	0.25498418	93.8929277	-65.47784832	10.70098201	-14.39693936
0.8	0.25508162	92.64770829	-64.38907271	10.70850698	-14.22749155
0.81	0.25518891	91.27765802	-63.20555098	10.67345392	-14.08571208
0.82	0.25531139	89.79202322	-61.929093	10.59560019	-13.96143882
0.83	0.25545404	88.20468934	-60.56040513	10.47395304	-13.83812728
0.84	0.25561992	86.53361105	-59.09965216	10.30697795	-13.6951971
0.85	0.25580749	84.79107613	-57.55193638	10.09642788	-13.52114267
0.86	0.25601123	82.97824361	-55.92530873	9.84657686	-13.31880911
0.87	0.25622327	81.09987923	-54.22940627	9.5624915	-13.08571582
0.88	0.2564417	79.16214838	-52.47383191	9.24867787	-12.81505118
0.89	0.25665265	77.17548799	-50.66810134	8.90960192	-12.49890273
0.9	0.25685245	75.13227103	-48.82502035	8.55165289	-12.1513303
0.91	0.25703426	73.02509431	-46.95787145	8.18154468	-11.78933204
0.92	0.25719209	70.84077039	-45.08062956	7.80723666	-11.43831407
0.93	0.25731936	68.56170647	-43.20293808	7.43610629	-11.12637933
0.94	0.25743176	66.20640972	-41.33254737	7.07103292	-10.83825866
0.95	0.257526	63.76636795	-39.4660604	6.71361281	-10.5827825
0.96	0.25761499	61.25936103	-37.6031688	6.36273071	-10.34221041
0.97	0.25770686	58.69970455	-35.74703169	6.01862356	-10.106965
0.98	0.25780169	56.10977227	-33.90190798	5.68188165	-9.8558867
0.99	0.25790361	53.50270479	-32.07636628	5.35487294	-9.58839587
1	0.25800678	50.90676694	-30.27898457	5.04011194	-9.2828316
1.01	0.25811064	48.34025582	-28.51840171	4.73999999	-8.93358014
1.02	0.25820432	45.82639713	-26.80409795	4.45757151	-8.52948026
1.03	0.25828133	43.38002038	-25.14304095	4.19423673	-8.07223967
1.04	0.25833231	41.01964423	-23.54257349	3.95174938	-7.55451076
1.05	0.25836342	38.74847845	-22.0083479	3.72965881	-6.99753481
1.06	0.25836134	36.58572782	-20.54473474	3.52910878	-6.38722808
1.07	0.25834393	34.53166257	-19.15621434	3.34836627	-5.74696143
1.08	0.25831099	32.59521351	-17.84653163	3.1874712	-5.07837772
1.09	0.25826736	30.78247793	-16.61890949	3.04586781	-4.3872516
1.1	0.25821688	29.09538183	-15.475489	2.92307009	-3.68185705
1.11	0.2581639	27.54190154	-14.41416841	2.81703351	-2.95563667
1.12	0.25811082	26.11234718	-13.43500715	2.72775095	-2.22608407
1.13	0.25806058	24.80120839	-12.53339949	2.6532373	-1.49903185
1.14	0.25801329	23.60055112	-11.70155021	2.59002942	-0.78202987
1.15	0.25795899	22.49751919	-10.93563158	2.5387273	-0.08319935
1.16	0.25788387	21.47846485	-10.22602253	2.49685923	0.59067983
1.17	0.25779386	20.53755256	-9.56343324	2.45913915	1.23485422
1.18	0.2576758	19.66404149	-8.94104797	2.42506129	1.84906836
1.19	0.25752246	18.84860724	-8.35485365	2.39474643	2.43112242
1.2	0.25733527	18.08590655	-7.80330579	2.36891314	2.98197724
1.21	0.25712412	17.37310442	-7.28874231	2.3496142	3.50270911
1.22	0.25690913	16.71238475	-6.81678105	2.33939531	3.99616774
1.23	0.25670318	16.10196959	-6.3982128	2.3449303	4.46401351
1.24	0.25653726	15.54805231	-6.04483965	2.37080119	4.90843713
1.25	0.25644586	15.05726678	-5.7668013	2.42060105	5.3348386
1.26	0.25645375	14.63442504	-5.57336923	2.49837837	5.74958855
1.27	0.25659071	14.26094004	-5.46594219	2.60406817	6.12825256
1.28	0.25686126	13.97361935	-5.44541939	2.73527626	6.51612029
1.29	0.25725091	13.73282308	-5.49223146	2.88526389	6.8795297
1.3	0.25773542	13.53767301	-5.59004868	3.0457821	7.22427236
1.31	0.25827388	13.37169676	-5.71193091	3.20569851	7.54718278
1.32	0.25881764	13.22206718	-5.84118744	3.35940713	7.84002873
1.33	0.25932952	13.07316526	-5.95551014	3.49857665	8.09788127
1.34	0.25977997	12.91453898	-6.03884155	3.6179883	8.31870708
1.35	0.26014265	12.73854286	-6.09436802	3.72159372	8.4887185
1.36	0.26042518	12.56775503	-6.12234141	3.80844251	8.63685817
1.37	0.26064358	12.37876498	-6.12022543	3.87905432	8.73729667
1.38	0.2608146	12.19323047	-6.10002988	3.93771306	8.81109896
1.39	0.26095412	12.01790807	-6.07137375	3.98863888	8.86301017
1.4	0.26107717	11.86124653	-6.0425	4.035017	8.90084275
1.41	0.26119899	11.72897903	-6.02099518	4.07967296	8.92997011
1.42	0.2613219	11.62513307	-6.00995029	4.12385017	8.95572461
